<?xml version="1.0" encoding="UTF-8" standalone="no"?>
<!-- Generator: Adobe Illustrator 21.1.0, SVG Export Plug-In . SVG Version: 6.00 Build 0)  -->

<svg
   version="1.1"
   id="emoji"
   x="0px"
   y="0px"
   viewBox="0 0 24 24"
   enable-background="new 0 0 72 72"
   xml:space="preserve"
   sodipodi:docname="robot.svg"
   inkscape:version="1.4.2 (2aeb623e1d, 2025-05-12)"
   width="24"
   height="24"
   xmlns:inkscape="http://www.inkscape.org/namespaces/inkscape"
   xmlns:sodipodi="http://sodipodi.sourceforge.net/DTD/sodipodi-0.dtd"
   xmlns="http://www.w3.org/2000/svg"
   xmlns:svg="http://www.w3.org/2000/svg"><defs
   id="defs17" /><sodipodi:namedview
   inkscape:zoom="26.138889"
   inkscape:cx="35.980871"
   inkscape:cy="36"
   inkscape:window-width="3840"
   inkscape:window-height="2083"
   inkscape:window-x="0"
   inkscape:window-y="0"
   inkscape:window-maximized="1"
   inkscape:current-layer="emoji"
   id="namedview1"
   pagecolor="#ffffff"
   bordercolor="#000000"
   borderopacity="0.25"
   inkscape:showpageshadow="2"
   inkscape:pageopacity="0.0"
   inkscape:pagecheckerboard="0"
   inkscape:deskcolor="#d1d1d1"><inkscape:grid
     id="grid17"
     units="px"
     originx="0"
     originy="0"
     spacingx="1"
     spacingy="1"
     empcolor="#0099e5"
     empopacity="0.30196078"
     color="#0099e5"
     opacity="0.14901961"
     empspacing="5"
     enabled="true"
     visible="false" /></sodipodi:namedview>
<g
   id="g17"><path
     fill="none"
     stroke-width="2"
     stroke-linecap="round"
     stroke-linejoin="round"
     stroke-miterlimit="2"
     style="stroke-dasharray:none;stroke-width:1;"
     d="m 11,6 v -1 c 0,0 0,-1 1,-1 v 0 c 0,0 1,0 1,1 v 1"
     stroke="#1d1e1c"
     id="path17" /><path
     fill="none"
     stroke="#1d1e1c"
     stroke-width="1"
     stroke-linecap="round"
     stroke-linejoin="round"
     stroke-miterlimit="2"
     d="M 17,20 H 7 c -2,0 -4,-1 -4,-3 V 9 c 0,-2 2,-3 4,-3 H 17 c 2,0 4,1 4,3 v 8 c 0,2 -2,3 -4,3 z"
     id="path8" /><circle
     fill="#ffffff"
     stroke="#1d1e1c"
     stroke-width="1"
     stroke-linecap="round"
     stroke-linejoin="round"
     stroke-miterlimit="2"
     cx="15"
     cy="12"
     id="ellipse8"
     r="1.5" /><circle
     transform="rotate(-73.440702)"
     fill="#ffffff"
     stroke="#1d1e1c"
     stroke-width="1"
     stroke-linecap="round"
     stroke-linejoin="round"
     stroke-miterlimit="2"
     cx="-9"
     cy="12"
     id="ellipse9"
     r="1.5" /><path
     fill="none"
     stroke="#1d1e1c"
     stroke-width="1"
     stroke-linecap="round"
     stroke-linejoin="round"
     stroke-miterlimit="2"
     d="m 2,16 v 0 c -1,0 -1,-0 -1,-1 v -4 c 0,-1 0,-1 1,-1 v 0 c 1,0 1,0 1,1 v 4 c 0,1 -0,1 -1,1 z"
     id="path11" /><path
     fill="none"
     stroke="#1d1e1c"
     stroke-width="1"
     stroke-linecap="round"
     stroke-linejoin="round"
     stroke-miterlimit="2"
     d="m 22,16 v 0 c 1,0 1,-0 1,-1 v -4 c 0,-1 -0,-1 -1,-1 v 0 c -1,0 -1,0 -1,1 v 4 c 0,1 0,1 1,1 z"
     id="path12" /></g>
</svg>
